<svg version="1.1" xmlns="http://www.w3.org/2000/svg" xmlns:xlink="http://www.w3.org/1999/xlink" width="48px" height="48px" viewBox="0,0,256,256"><g fill="none" fill-rule="nonzero" stroke="none" stroke-width="none" stroke-linecap="none" stroke-linejoin="none" stroke-miterlimit="none" stroke-dasharray="" stroke-dashoffset="0" font-family="none" font-weight="none" font-size="none" text-anchor="none" style="mix-blend-mode: normal"><g transform="scale(5.33333,5.33333)"><path d="M27.793,48.024c7.385,0 13.293,-4.431 13.293,-9.846c0,-2.462 -1.28,-4.726 -3.348,-6.499c-2.265,-1.871 -3.545,-4.628 -3.545,-7.582v-0.197c0,-3.545 -2.855,-6.4 -6.4,-6.4c-3.545,0 -6.4,2.855 -6.4,6.4v0.197c0,2.954 -1.378,5.711 -3.545,7.582c-2.068,1.772 -3.348,4.037 -3.348,6.499c0,5.415 5.908,9.846 13.293,9.846z" fill="#000000" stroke="none" stroke-width="1" stroke-linecap="butt" stroke-linejoin="miter" stroke-miterlimit="10"></path><path d="M30.148,17.878c-0.876,-2.552 -3.292,-4.378 -6.148,-4.378c-3.6,0 -6.5,2.9 -6.5,6.5v0.2c0,2.607 -1.057,5.063 -2.778,6.909" fill="none" stroke="#ffffff" stroke-width="3" stroke-linecap="round" stroke-linejoin="round" stroke-miterlimit="20"></path><path d="M10.566,33.523c-0.043,0.322 -0.066,0.648 -0.066,0.977c0,5.5 6,10 13.5,10c7.5,0 13.5,-4.5 13.5,-10c0,-2.5 -1.3,-4.8 -3.4,-6.6" fill="none" stroke="#ffffff" stroke-width="3" stroke-linecap="round" stroke-linejoin="round" stroke-miterlimit="20"></path><path d="M31.299,7.417c1.585,-1.585 2.258,-3.67 1.929,-5.422c-1.753,-0.329 -3.837,0.344 -5.422,1.929c-1.585,1.585 -2.258,3.67 -1.929,5.422" fill="none" stroke="#ffffff" stroke-width="3" stroke-linecap="round" stroke-linejoin="round" stroke-miterlimit="10"></path></g></g></svg>